<svg width="26" height="26" viewBox="0 0 26 26" fill="none" xmlns="http://www.w3.org/2000/svg">
<rect x="0.5" y="0.5" width="25" height="25" rx="4.5" fill="#C4C4C4" stroke="#404040"/>
<path d="M14.625 4C11.1044 4 8.25 6.85442 8.25 10.375C8.25 11.8482 8.75414 13.2002 9.59353 14.2797L4.23375 19.6395C4.07811 19.7951 4 19.9986 4 20.2031C4 20.4071 4.07811 20.6111 4.23375 20.7668C4.38889 20.9224 4.59286 21 4.79689 21C5.00092 21 5.20489 20.9224 5.36 20.7668L10.7203 15.4064C11.7998 16.2459 13.1519 16.75 14.625 16.75C18.1456 16.75 21 13.8956 21 10.375C21 6.85442 18.1456 4 14.625 4ZM14.625 15.1562C11.9884 15.1562 9.84375 13.0116 9.84375 10.375C9.84375 7.73842 11.9884 5.59375 14.625 5.59375C17.2616 5.59375 19.4062 7.73842 19.4062 10.375C19.4062 13.0116 17.2616 15.1562 14.625 15.1562Z" fill="#717171"/>
</svg>
