<svg width="181" height="27" viewBox="0 0 181 27" fill="none" xmlns="http://www.w3.org/2000/svg">
<path d="M5.625 6V3L0 8L5.625 13V10C9.375 9 12.1875 9.5 15 12C13.125 7 9.84375 6 5.625 6Z" fill="#6A6A6A"/>
<path d="M28.842 4.2V14H27.82V9.478H21.688V14H20.652V4.2H21.688V8.568H27.82V4.2H28.842ZM34.446 6.58C35.4074 6.58 36.1447 6.82267 36.658 7.308C37.1714 7.784 37.428 8.49333 37.428 9.436V14H36.476V12.852C36.252 13.2347 35.9207 13.5333 35.482 13.748C35.0527 13.9627 34.5394 14.07 33.942 14.07C33.1207 14.07 32.4674 13.874 31.982 13.482C31.4967 13.09 31.254 12.572 31.254 11.928C31.254 11.3027 31.478 10.7987 31.926 10.416C32.3834 10.0333 33.1067 9.842 34.096 9.842H36.434V9.394C36.434 8.75933 36.2567 8.27867 35.902 7.952C35.5474 7.616 35.0294 7.448 34.348 7.448C33.8814 7.448 33.4334 7.52733 33.004 7.686C32.5747 7.83533 32.206 8.04533 31.898 8.316L31.45 7.574C31.8234 7.25667 32.2714 7.014 32.794 6.846C33.3167 6.66867 33.8674 6.58 34.446 6.58ZM34.096 13.286C34.656 13.286 35.1367 13.16 35.538 12.908C35.9394 12.6467 36.238 12.2733 36.434 11.788V10.584H34.124C32.864 10.584 32.234 11.0227 32.234 11.9C32.234 12.3293 32.3974 12.67 32.724 12.922C33.0507 13.1647 33.508 13.286 34.096 13.286ZM43.5078 10.164C44.0304 10.2853 44.4318 10.4953 44.7118 10.794C45.0011 11.0927 45.1458 11.4567 45.1458 11.886C45.1458 12.3153 44.9964 12.698 44.6978 13.034C44.4084 13.37 44.0118 13.6313 43.5078 13.818C43.0038 13.9953 42.4484 14.084 41.8418 14.084C41.3098 14.084 40.7871 14.0093 40.2738 13.86C39.7604 13.7013 39.3124 13.4727 38.9298 13.174L39.2658 12.432C39.6018 12.684 39.9938 12.88 40.4418 13.02C40.8898 13.16 41.3424 13.23 41.7998 13.23C42.4811 13.23 43.0364 13.104 43.4658 12.852C43.9044 12.5907 44.1238 12.2407 44.1238 11.802C44.1238 11.41 43.9464 11.1067 43.5918 10.892C43.2371 10.668 42.7518 10.556 42.1358 10.556H40.8758V9.828H42.0798C42.6304 9.828 43.0738 9.72533 43.4098 9.52C43.7458 9.30533 43.9138 9.02067 43.9138 8.666C43.9138 8.274 43.7224 7.966 43.3398 7.742C42.9664 7.518 42.4764 7.406 41.8698 7.406C41.0764 7.406 40.2924 7.60667 39.5178 8.008L39.2378 7.238C40.1151 6.78067 41.0251 6.552 41.9678 6.552C42.5278 6.552 43.0318 6.636 43.4798 6.804C43.9371 6.96267 44.2918 7.19133 44.5438 7.49C44.8051 7.78867 44.9358 8.134 44.9358 8.526C44.9358 8.89933 44.8051 9.23067 44.5438 9.52C44.2918 9.80933 43.9464 10.024 43.5078 10.164ZM49.9363 6.58C50.8976 6.58 51.6349 6.82267 52.1483 7.308C52.6616 7.784 52.9183 8.49333 52.9183 9.436V14H51.9663V12.852C51.7423 13.2347 51.4109 13.5333 50.9723 13.748C50.5429 13.9627 50.0296 14.07 49.4323 14.07C48.6109 14.07 47.9576 13.874 47.4723 13.482C46.9869 13.09 46.7443 12.572 46.7443 11.928C46.7443 11.3027 46.9683 10.7987 47.4163 10.416C47.8736 10.0333 48.5969 9.842 49.5863 9.842H51.9243V9.394C51.9243 8.75933 51.7469 8.27867 51.3923 7.952C51.0376 7.616 50.5196 7.448 49.8383 7.448C49.3716 7.448 48.9236 7.52733 48.4943 7.686C48.0649 7.83533 47.6963 8.04533 47.3883 8.316L46.9403 7.574C47.3136 7.25667 47.7616 7.014 48.2843 6.846C48.8069 6.66867 49.3576 6.58 49.9363 6.58ZM49.5863 13.286C50.1463 13.286 50.6269 13.16 51.0283 12.908C51.4296 12.6467 51.7283 12.2733 51.9243 11.788V10.584H49.6143C48.3543 10.584 47.7243 11.0227 47.7243 11.9C47.7243 12.3293 47.8876 12.67 48.2143 12.922C48.5409 13.1647 48.9983 13.286 49.5863 13.286ZM62.7464 13.132V15.778H61.8084V14H55.2144V15.778H54.2764V13.132H54.6964C55.1911 13.104 55.5271 12.74 55.7044 12.04C55.8817 11.34 56.0031 10.36 56.0684 9.1L56.1664 6.636H61.5984V13.132H62.7464ZM56.9784 9.156C56.9317 10.2013 56.8431 11.0647 56.7124 11.746C56.5817 12.418 56.3484 12.88 56.0124 13.132H60.6044V7.518H57.0624L56.9784 9.156ZM73.0376 10.192C74.0363 10.4253 74.5356 11.0273 74.5356 11.998C74.5356 12.642 74.2976 13.1367 73.8216 13.482C73.3456 13.8273 72.6363 14 71.6936 14H68.3476V6.636H71.5956C72.4356 6.636 73.0936 6.79933 73.5696 7.126C74.0456 7.45267 74.2836 7.91933 74.2836 8.526C74.2836 8.92733 74.1716 9.27267 73.9476 9.562C73.7329 9.842 73.4296 10.052 73.0376 10.192ZM69.3136 9.912H71.5256C72.0949 9.912 72.5289 9.80467 72.8276 9.59C73.1356 9.37533 73.2896 9.06267 73.2896 8.652C73.2896 8.24133 73.1356 7.93333 72.8276 7.728C72.5289 7.52267 72.0949 7.42 71.5256 7.42H69.3136V9.912ZM71.6516 13.216C72.2863 13.216 72.7623 13.1133 73.0796 12.908C73.3969 12.7027 73.5556 12.3807 73.5556 11.942C73.5556 11.5033 73.4109 11.1813 73.1216 10.976C72.8323 10.7613 72.3749 10.654 71.7496 10.654H69.3136V13.216H71.6516ZM88.7612 6.636V14H87.8512V8.176L84.8692 13.104H84.4212L81.4392 8.162V14H80.5292V6.636H81.5372L84.6592 11.942L87.8372 6.636H88.7612ZM94.1238 6.58C95.0851 6.58 95.8224 6.82267 96.3358 7.308C96.8491 7.784 97.1058 8.49333 97.1058 9.436V14H96.1538V12.852C95.9298 13.2347 95.5984 13.5333 95.1598 13.748C94.7304 13.9627 94.2171 14.07 93.6198 14.07C92.7984 14.07 92.1451 13.874 91.6598 13.482C91.1744 13.09 90.9318 12.572 90.9318 11.928C90.9318 11.3027 91.1558 10.7987 91.6038 10.416C92.0611 10.0333 92.7844 9.842 93.7738 9.842H96.1118V9.394C96.1118 8.75933 95.9344 8.27867 95.5798 7.952C95.2251 7.616 94.7071 7.448 94.0258 7.448C93.5591 7.448 93.1111 7.52733 92.6818 7.686C92.2524 7.83533 91.8838 8.04533 91.5758 8.316L91.1278 7.574C91.5011 7.25667 91.9491 7.014 92.4718 6.846C92.9944 6.66867 93.5451 6.58 94.1238 6.58ZM93.7738 13.286C94.3338 13.286 94.8144 13.16 95.2158 12.908C95.6171 12.6467 95.9158 12.2733 96.1118 11.788V10.584H93.8018C92.5418 10.584 91.9118 11.0227 91.9118 11.9C91.9118 12.3293 92.0751 12.67 92.4018 12.922C92.7284 13.1647 93.1858 13.286 93.7738 13.286ZM104.96 7.518H100.746V14H99.7519V6.636H104.96V7.518ZM108.93 6.58C109.892 6.58 110.629 6.82267 111.142 7.308C111.656 7.784 111.912 8.49333 111.912 9.436V14H110.96V12.852C110.736 13.2347 110.405 13.5333 109.966 13.748C109.537 13.9627 109.024 14.07 108.426 14.07C107.605 14.07 106.952 13.874 106.466 13.482C105.981 13.09 105.738 12.572 105.738 11.928C105.738 11.3027 105.962 10.7987 106.41 10.416C106.868 10.0333 107.591 9.842 108.58 9.842H110.918V9.394C110.918 8.75933 110.741 8.27867 110.386 7.952C110.032 7.616 109.514 7.448 108.832 7.448C108.366 7.448 107.918 7.52733 107.488 7.686C107.059 7.83533 106.69 8.04533 106.382 8.316L105.934 7.574C106.308 7.25667 106.756 7.014 107.278 6.846C107.801 6.66867 108.352 6.58 108.93 6.58ZM108.58 13.286C109.14 13.286 109.621 13.16 110.022 12.908C110.424 12.6467 110.722 12.2733 110.918 11.788V10.584H108.608C107.348 10.584 106.718 11.0227 106.718 11.9C106.718 12.3293 106.882 12.67 107.208 12.922C107.535 13.1647 107.992 13.286 108.58 13.286ZM117.992 10.164C118.515 10.2853 118.916 10.4953 119.196 10.794C119.485 11.0927 119.63 11.4567 119.63 11.886C119.63 12.3153 119.481 12.698 119.182 13.034C118.893 13.37 118.496 13.6313 117.992 13.818C117.488 13.9953 116.933 14.084 116.326 14.084C115.794 14.084 115.271 14.0093 114.758 13.86C114.245 13.7013 113.797 13.4727 113.414 13.174L113.75 12.432C114.086 12.684 114.478 12.88 114.926 13.02C115.374 13.16 115.827 13.23 116.284 13.23C116.965 13.23 117.521 13.104 117.95 12.852C118.389 12.5907 118.608 12.2407 118.608 11.802C118.608 11.41 118.431 11.1067 118.076 10.892C117.721 10.668 117.236 10.556 116.62 10.556H115.36V9.828H116.564C117.115 9.828 117.558 9.72533 117.894 9.52C118.23 9.30533 118.398 9.02067 118.398 8.666C118.398 8.274 118.207 7.966 117.824 7.742C117.451 7.518 116.961 7.406 116.354 7.406C115.561 7.406 114.777 7.60667 114.002 8.008L113.722 7.238C114.599 6.78067 115.509 6.552 116.452 6.552C117.012 6.552 117.516 6.636 117.964 6.804C118.421 6.96267 118.776 7.19133 119.028 7.49C119.289 7.78867 119.42 8.134 119.42 8.526C119.42 8.89933 119.289 9.23067 119.028 9.52C118.776 9.80933 118.431 10.024 117.992 10.164ZM121.887 6.636H122.881V12.488L127.795 6.636H128.677V14H127.683V8.148L122.783 14H121.887V6.636ZM131.525 6.636H132.519V9.898H137.153V6.636H138.147V14H137.153V10.752H132.519V14H131.525V6.636Z" fill="#6A6A6A"/>
</svg>
