<svg width="50" height="49" viewBox="0 0 50 49" fill="none" xmlns="http://www.w3.org/2000/svg">
<path d="M49.6 24.405C49.6 37.8835 38.7029 48.81 25.2607 48.81C11.8186 48.81 0.921509 37.8835 0.921509 24.405C0.921509 10.9265 11.8186 0 25.2607 0C38.7029 0 49.6 10.9265 49.6 24.405Z" fill="#4B4B4B"/>
<g clip-path="url(#clip0_77_2)">
<path d="M38.1835 31.3498H20.637L13.2617 14.4501H8.68323V12.3376H14.6405L22.0155 29.2376H38.1835V31.3498Z" fill="#FC8800"/>
<path d="M27.6478 36.6315C27.6478 38.3806 26.2316 39.8 24.4869 39.8C22.741 39.8 21.3262 38.3806 21.3262 36.6315C21.3262 34.8818 22.7409 33.4627 24.4869 33.4627C26.2316 33.4627 27.6478 34.8818 27.6478 36.6315Z" fill="#FC8800"/>
<path d="M38.1835 36.6315C38.1835 38.3806 36.7677 39.8 35.023 39.8C33.2777 39.8 31.8622 38.3806 31.8622 36.6315C31.8622 34.8818 33.2777 33.4627 35.023 33.4627C36.7678 33.4627 38.1835 34.8818 38.1835 36.6315Z" fill="#FC8800"/>
<path d="M35.023 22.9C30.9072 22.9 27.4315 20.2429 26.1229 16.5624H19.219L23.4335 27.125H38.1835L40.616 21.0309C39.0439 22.1904 37.1199 22.9 35.023 22.9Z" fill="#FC8800"/>
<path d="M35.023 6C30.9506 6 27.6477 9.31109 27.6477 13.3938C27.6477 17.4763 30.9506 20.7876 35.023 20.7876C39.0951 20.7876 42.3977 17.4764 42.3977 13.3938C42.3977 9.31109 39.0952 6 35.023 6ZM33.9056 17.1277L32.4155 15.6343L30.1808 13.3938L31.6709 11.9002L33.9056 14.1406L38.3752 9.65995L39.8647 11.1535L33.9056 17.1277Z" fill="#FC8800"/>
</g>
<defs>
<clipPath id="clip0_77_2">
<rect width="33.7147" height="33.8" fill="white" transform="translate(8.68317 6)"/>
</clipPath>
</defs>
</svg>
