<svg width="228" height="50" viewBox="0 0 228 50" fill="none" xmlns="http://www.w3.org/2000/svg">
<path d="M79.28 16.8L71.48 35H66.41L58.636 16.8H64.2L69.14 28.656L74.184 16.8H79.28ZM80.4923 20.908H85.4323V35H80.4923V20.908ZM82.9623 19.348C82.0609 19.348 81.3329 19.0967 80.7783 18.594C80.2236 18.0913 79.9463 17.4673 79.9463 16.722C79.9463 15.9767 80.2236 15.3527 80.7783 14.85C81.3329 14.3473 82.0609 14.096 82.9623 14.096C83.8636 14.096 84.5916 14.3387 85.1463 14.824C85.7009 15.292 85.9783 15.8987 85.9783 16.644C85.9783 17.424 85.7009 18.074 85.1463 18.594C84.5916 19.0967 83.8636 19.348 82.9623 19.348ZM97.8206 20.674C99.5713 20.674 100.975 21.194 102.033 22.234C103.107 23.274 103.645 24.8427 103.645 26.94V35H98.7046V27.746C98.7046 25.822 97.9333 24.86 96.3906 24.86C95.5413 24.86 94.8566 25.1373 94.3366 25.692C93.834 26.2467 93.5826 27.0787 93.5826 28.188V35H88.6426V20.908H93.3486V22.442C93.9033 21.87 94.562 21.4367 95.3246 21.142C96.0873 20.83 96.9193 20.674 97.8206 20.674ZM121.338 20.908L115.254 35.572C114.544 37.3053 113.677 38.5187 112.654 39.212C111.632 39.9227 110.384 40.278 108.91 40.278C108.165 40.278 107.411 40.1567 106.648 39.914C105.903 39.6887 105.296 39.3853 104.828 39.004L106.544 35.546C106.822 35.806 107.151 36.0053 107.532 36.144C107.931 36.3 108.33 36.378 108.728 36.378C109.196 36.378 109.578 36.2827 109.872 36.092C110.184 35.9013 110.444 35.598 110.652 35.182L104.62 20.908H109.69L113.148 29.514L116.632 20.908H121.338ZM122.615 15.708H127.555V35H122.615V15.708ZM143.454 35.234C142.275 35.234 141.114 35.104 139.97 34.844C138.826 34.5667 137.907 34.2113 137.214 33.778L138.696 30.398C139.337 30.7967 140.1 31.1173 140.984 31.36C141.868 31.5853 142.743 31.698 143.61 31.698C144.407 31.698 144.971 31.62 145.3 31.464C145.647 31.2907 145.82 31.048 145.82 30.736C145.82 30.424 145.612 30.2073 145.196 30.086C144.797 29.9473 144.156 29.8173 143.272 29.696C142.145 29.5573 141.183 29.3753 140.386 29.15C139.606 28.9247 138.93 28.5087 138.358 27.902C137.786 27.2953 137.5 26.446 137.5 25.354C137.5 24.4527 137.769 23.6553 138.306 22.962C138.843 22.2513 139.623 21.6967 140.646 21.298C141.686 20.882 142.925 20.674 144.364 20.674C145.387 20.674 146.401 20.778 147.406 20.986C148.411 21.194 149.252 21.4887 149.928 21.87L148.446 25.224C147.198 24.5307 145.846 24.184 144.39 24.184C143.61 24.184 143.038 24.2793 142.674 24.47C142.31 24.6433 142.128 24.8773 142.128 25.172C142.128 25.5013 142.327 25.7353 142.726 25.874C143.125 25.9953 143.783 26.1253 144.702 26.264C145.863 26.4373 146.825 26.6367 147.588 26.862C148.351 27.0873 149.009 27.5033 149.564 28.11C150.136 28.6993 150.422 29.5313 150.422 30.606C150.422 31.49 150.153 32.2873 149.616 32.998C149.079 33.6913 148.281 34.2373 147.224 34.636C146.184 35.0347 144.927 35.234 143.454 35.234ZM161.729 20.674C163.48 20.674 164.884 21.194 165.941 22.234C167.016 23.274 167.553 24.8427 167.553 26.94V35H162.613V27.746C162.613 25.822 161.842 24.86 160.299 24.86C159.45 24.86 158.765 25.1373 158.245 25.692C157.742 26.2467 157.491 27.0787 157.491 28.188V35H152.551V15.708H157.491V22.208C158.028 21.7053 158.661 21.324 159.389 21.064C160.117 20.804 160.897 20.674 161.729 20.674ZM177.929 35.234C176.421 35.234 175.061 34.922 173.847 34.298C172.634 33.674 171.681 32.8073 170.987 31.698C170.311 30.5887 169.973 29.332 169.973 27.928C169.973 26.5413 170.311 25.2933 170.987 24.184C171.681 23.0747 172.625 22.2167 173.821 21.61C175.035 20.986 176.404 20.674 177.929 20.674C179.455 20.674 180.824 20.986 182.037 21.61C183.251 22.2167 184.195 23.0747 184.871 24.184C185.547 25.276 185.885 26.524 185.885 27.928C185.885 29.332 185.547 30.5887 184.871 31.698C184.195 32.8073 183.251 33.674 182.037 34.298C180.824 34.922 179.455 35.234 177.929 35.234ZM177.929 31.308C178.796 31.308 179.507 31.0133 180.061 30.424C180.616 29.8173 180.893 28.9853 180.893 27.928C180.893 26.888 180.616 26.0733 180.061 25.484C179.507 24.8947 178.796 24.6 177.929 24.6C177.063 24.6 176.352 24.8947 175.797 25.484C175.243 26.0733 174.965 26.888 174.965 27.928C174.965 28.9853 175.243 29.8173 175.797 30.424C176.352 31.0133 177.063 31.308 177.929 31.308ZM197.04 20.674C198.323 20.674 199.484 20.9773 200.524 21.584C201.581 22.1733 202.413 23.0227 203.02 24.132C203.644 25.224 203.956 26.498 203.956 27.954C203.956 29.41 203.644 30.6927 203.02 31.802C202.413 32.894 201.581 33.7433 200.524 34.35C199.484 34.9393 198.323 35.234 197.04 35.234C195.393 35.234 194.085 34.74 193.114 33.752V40.044H188.174V20.908H192.88V22.312C193.799 21.22 195.185 20.674 197.04 20.674ZM196 31.308C196.867 31.308 197.577 31.0133 198.132 30.424C198.687 29.8173 198.964 28.994 198.964 27.954C198.964 26.914 198.687 26.0993 198.132 25.51C197.577 24.9033 196.867 24.6 196 24.6C195.133 24.6 194.423 24.9033 193.868 25.51C193.313 26.0993 193.036 26.914 193.036 27.954C193.036 28.994 193.313 29.8173 193.868 30.424C194.423 31.0133 195.133 31.308 196 31.308Z" fill="#4B4B4B"/>
<rect width="52.4676" height="50" rx="11" fill="#4B4B4B"/>
<path d="M25.8075 22C24.1708 22 22.8318 23.35 22.8318 25C22.8318 26.65 24.1708 28 25.8075 28C27.4441 28 28.7832 26.65 28.7832 25C28.7832 23.35 27.4441 22 25.8075 22ZM25.8075 26C25.2619 26 24.8156 25.55 24.8156 25C24.8156 24.45 25.2619 24 25.8075 24C26.353 24 26.7994 24.45 26.7994 25C26.7994 25.55 26.353 26 25.8075 26ZM25.8075 1C12.6846 1 2.00183 11.77 2.00183 25C2.00183 38.23 12.6846 49 25.8075 49C38.9303 49 49.6131 38.23 49.6131 25C49.6131 11.77 38.9303 1 25.8075 1ZM25.8075 46C14.3213 46 4.97754 36.58 4.97754 25H6.96134C6.96134 35.48 15.4123 44 25.8075 44V46ZM25.8075 42.67C16.1464 42.67 8.28057 34.74 8.28057 25H10.2644C10.2644 33.64 17.2374 40.67 25.8075 40.67V42.67ZM25.8075 39.33C17.9715 39.33 11.5935 32.9 11.5935 25H13.5773C13.5773 31.8 19.0625 37.33 25.8075 37.33V39.33ZM25.8075 34C20.8876 34 16.8804 29.96 16.8804 25C16.8804 20.04 20.8876 16 25.8075 16C30.7273 16 34.7346 20.04 34.7346 25C34.7346 29.96 30.7273 34 25.8075 34ZM38.0376 25C38.0376 18.2 32.5524 12.67 25.8075 12.67V10.67C33.6435 10.67 40.0214 17.1 40.0214 25H38.0376ZM41.3506 25C41.3506 16.36 34.3775 9.33 25.8075 9.33V7.33C35.4686 7.33 43.3344 15.26 43.3344 25H41.3506ZM25.8075 6V4C37.2937 4 46.6374 13.42 46.6374 25H44.6536C44.6536 14.52 36.2026 6 25.8075 6Z" fill="#FC8800"/>
</svg>
