<svg width="515" height="295" viewBox="0 0 515 295" fill="none" xmlns="http://www.w3.org/2000/svg">
<g filter="url(#filter0_d_10_41)">
<path d="M60.488 29.528C62.28 30.264 63.672 31.336 64.664 32.744C65.688 34.152 66.2 35.752 66.2 37.544C66.2 39.656 65.448 41.496 63.944 43.064C62.472 44.6 60.472 45.784 57.944 46.616C55.448 47.416 52.664 47.816 49.592 47.816C44.696 47.816 40.04 46.84 35.624 44.888L38.936 37.064C40.504 37.704 42.136 38.2 43.832 38.552C45.528 38.872 47.128 39.032 48.632 39.032C50.456 39.032 51.928 38.776 53.048 38.264C54.2 37.752 54.776 37 54.776 36.008C54.776 34.664 53.672 33.992 51.464 33.992H42.392V25.832H50.504C51.464 25.832 52.184 25.656 52.664 25.304C53.176 24.952 53.432 24.456 53.432 23.816C53.432 22.984 52.984 22.344 52.088 21.896C51.224 21.448 50.072 21.224 48.632 21.224C47.288 21.224 45.832 21.416 44.264 21.8C42.696 22.184 41.208 22.728 39.8 23.432L36.488 15.032C40.2 13.336 44.232 12.488 48.584 12.488C51.496 12.488 54.184 12.888 56.648 13.688C59.144 14.488 61.128 15.656 62.6 17.192C64.104 18.696 64.856 20.472 64.856 22.52C64.856 24.024 64.472 25.384 63.704 26.6C62.936 27.816 61.864 28.792 60.488 29.528ZM87.122 23.672C90.994 23.672 94.002 24.712 96.146 26.792C98.29 28.872 99.362 31.736 99.362 35.384C99.362 37.848 98.69 40.024 97.346 41.912C96.034 43.768 94.226 45.208 91.922 46.232C89.618 47.256 87.042 47.768 84.194 47.768C79.522 47.768 75.746 46.376 72.866 43.592C70.018 40.808 68.594 36.52 68.594 30.728C68.594 19.816 73.458 13.48 83.186 11.72L96.242 9.368L97.682 18.248L86.642 20.216C84.05 20.664 82.178 21.352 81.026 22.28C79.906 23.208 79.218 24.568 78.962 26.36C81.202 24.568 83.922 23.672 87.122 23.672ZM84.194 39.752C85.506 39.752 86.514 39.32 87.218 38.456C87.954 37.592 88.322 36.552 88.322 35.336C88.322 33.992 87.938 32.952 87.17 32.216C86.434 31.48 85.442 31.112 84.194 31.112C82.914 31.112 81.89 31.496 81.122 32.264C80.354 33 79.97 34.04 79.97 35.384C79.97 36.664 80.354 37.72 81.122 38.552C81.922 39.352 82.946 39.752 84.194 39.752ZM130.3 33.848C130.3 34.008 130.252 34.856 130.156 36.392H111.916C112.3 37.384 112.94 38.152 113.836 38.696C114.732 39.208 115.852 39.464 117.196 39.464C118.348 39.464 119.308 39.32 120.076 39.032C120.876 38.744 121.74 38.248 122.668 37.544L128.332 43.256C125.772 46.072 121.948 47.48 116.86 47.48C113.692 47.48 110.908 46.904 108.508 45.752C106.108 44.568 104.252 42.936 102.94 40.856C101.628 38.776 100.972 36.44 100.972 33.848C100.972 31.224 101.612 28.888 102.892 26.84C104.204 24.76 105.98 23.144 108.22 21.992C110.492 20.84 113.036 20.264 115.852 20.264C118.508 20.264 120.924 20.792 123.1 21.848C125.308 22.904 127.052 24.456 128.332 26.504C129.644 28.552 130.3 31 130.3 33.848ZM115.948 27.656C114.828 27.656 113.9 27.96 113.164 28.568C112.428 29.176 111.948 30.04 111.724 31.16H120.172C119.948 30.072 119.468 29.224 118.732 28.616C117.996 27.976 117.068 27.656 115.948 27.656ZM151.72 20.264C154.024 20.264 156.136 20.824 158.056 21.944C160.008 23.032 161.544 24.616 162.664 26.696C163.816 28.776 164.392 31.176 164.392 33.896C164.392 36.616 163.816 39.016 162.664 41.096C161.544 43.144 160.008 44.728 158.056 45.848C156.136 46.936 154.024 47.48 151.72 47.48C148.808 47.48 146.584 46.728 145.048 45.224V56.312H134.2V20.744H144.52V22.904C146.088 21.144 148.488 20.264 151.72 20.264ZM149.128 39.032C150.376 39.032 151.4 38.584 152.2 37.688C153 36.792 153.4 35.528 153.4 33.896C153.4 32.264 153 31 152.2 30.104C151.4 29.176 150.376 28.712 149.128 28.712C147.88 28.712 146.856 29.176 146.056 30.104C145.256 31 144.856 32.264 144.856 33.896C144.856 35.528 145.256 36.792 146.056 37.688C146.856 38.584 147.88 39.032 149.128 39.032ZM167.903 20.744H178.703V32.6L187.775 20.744H197.759V47H186.959V35.096L177.935 47H167.903V20.744ZM230.992 47.48C228.016 47.48 225.344 46.904 222.976 45.752C220.64 44.6 218.8 42.984 217.456 40.904C216.144 38.824 215.488 36.472 215.488 33.848C215.488 31.224 216.144 28.888 217.456 26.84C218.8 24.76 220.64 23.144 222.976 21.992C225.344 20.84 228.016 20.264 230.992 20.264C234.192 20.264 236.928 20.952 239.2 22.328C241.472 23.704 243.04 25.608 243.904 28.04L235.504 32.168C234.48 29.864 232.96 28.712 230.944 28.712C229.664 28.712 228.592 29.16 227.728 30.056C226.896 30.952 226.48 32.216 226.48 33.848C226.48 35.512 226.896 36.792 227.728 37.688C228.592 38.584 229.664 39.032 230.944 39.032C232.96 39.032 234.48 37.88 235.504 35.576L243.904 39.704C243.04 42.136 241.472 44.04 239.2 45.416C236.928 46.792 234.192 47.48 230.992 47.48ZM269.208 33.224C272.088 34.312 273.528 36.344 273.528 39.32C273.528 41.72 272.584 43.608 270.696 44.984C268.808 46.328 266.04 47 262.392 47H246.888V20.744H261.624C265.144 20.744 267.88 21.352 269.832 22.568C271.784 23.752 272.76 25.432 272.76 27.608C272.76 28.824 272.456 29.912 271.848 30.872C271.24 31.832 270.36 32.616 269.208 33.224ZM256.392 31.112H260.664C262.232 31.112 263.016 30.488 263.016 29.24C263.016 28.632 262.824 28.184 262.44 27.896C262.088 27.608 261.496 27.464 260.664 27.464H256.392V31.112ZM261.432 40.28C263 40.28 263.784 39.624 263.784 38.312C263.784 37.064 263 36.44 261.432 36.44H256.392V40.28H261.432ZM290.611 47.48C287.699 47.48 285.075 46.904 282.739 45.752C280.435 44.568 278.627 42.952 277.315 40.904C276.003 38.824 275.347 36.472 275.347 33.848C275.347 31.224 276.003 28.888 277.315 26.84C278.627 24.76 280.435 23.144 282.739 21.992C285.075 20.84 287.699 20.264 290.611 20.264C293.555 20.264 296.179 20.84 298.483 21.992C300.819 23.144 302.627 24.76 303.907 26.84C305.219 28.888 305.875 31.224 305.875 33.848C305.875 36.472 305.219 38.824 303.907 40.904C302.627 42.952 300.819 44.568 298.483 45.752C296.179 46.904 293.555 47.48 290.611 47.48ZM290.611 39.032C291.859 39.032 292.883 38.584 293.683 37.688C294.483 36.76 294.883 35.48 294.883 33.848C294.883 32.216 294.483 30.952 293.683 30.056C292.883 29.16 291.859 28.712 290.611 28.712C289.363 28.712 288.339 29.16 287.539 30.056C286.739 30.952 286.339 32.216 286.339 33.848C286.339 35.48 286.739 36.76 287.539 37.688C288.339 38.584 289.363 39.032 290.611 39.032ZM335.92 20.264C338.736 20.264 341.264 20.84 343.504 21.992C345.744 23.144 347.488 24.76 348.736 26.84C350.016 28.888 350.656 31.224 350.656 33.848C350.656 36.472 350.016 38.824 348.736 40.904C347.488 42.952 345.744 44.568 343.504 45.752C341.264 46.904 338.736 47.48 335.92 47.48C332.464 47.48 329.472 46.648 326.944 44.984C324.448 43.288 322.752 41.016 321.856 38.168H320.032V47H309.232V20.744H320.032V29.192H321.952C322.912 26.44 324.624 24.264 327.088 22.664C329.584 21.064 332.528 20.264 335.92 20.264ZM335.92 39.032C337.104 39.032 338.064 38.584 338.8 37.688C339.568 36.76 339.952 35.48 339.952 33.848C339.952 32.216 339.568 30.952 338.8 30.056C338.064 29.16 337.104 28.712 335.92 28.712C334.736 28.712 333.76 29.16 332.992 30.056C332.256 30.952 331.888 32.216 331.888 33.848C331.888 35.48 332.256 36.76 332.992 37.688C333.76 38.584 334.736 39.032 335.92 39.032ZM379.619 20.264C384.227 20.264 387.747 21.304 390.179 23.384C392.611 25.432 393.827 28.6 393.827 32.888V47H383.747V43.544C382.499 46.168 380.019 47.48 376.307 47.48C374.227 47.48 372.451 47.128 370.979 46.424C369.539 45.688 368.435 44.712 367.667 43.496C366.931 42.248 366.563 40.856 366.563 39.32C366.563 36.728 367.555 34.76 369.539 33.416C371.523 32.072 374.531 31.4 378.563 31.4H382.931C382.579 29.352 380.931 28.328 377.987 28.328C376.803 28.328 375.603 28.52 374.387 28.904C373.171 29.256 372.131 29.752 371.267 30.392L367.811 23.24C369.315 22.312 371.123 21.592 373.235 21.08C375.379 20.536 377.507 20.264 379.619 20.264ZM379.571 40.952C380.339 40.952 381.027 40.744 381.635 40.328C382.243 39.912 382.691 39.288 382.979 38.456V36.632H380.291C378.083 36.632 376.979 37.368 376.979 38.84C376.979 39.448 377.203 39.96 377.651 40.376C378.131 40.76 378.771 40.952 379.571 40.952ZM427.911 20.744L417.111 47.528C415.735 50.952 414.023 53.352 411.975 54.728C409.927 56.104 407.415 56.792 404.439 56.792C402.967 56.792 401.479 56.568 399.975 56.12C398.503 55.704 397.335 55.144 396.471 54.44L400.071 47C400.615 47.416 401.223 47.752 401.895 48.008C402.599 48.264 403.271 48.392 403.911 48.392C405.095 48.392 405.991 48.04 406.599 47.336L395.559 20.744H406.695L412.119 34.808L417.639 20.744H427.911ZM460.559 38.504V52.184H450.527V47H436.031V52.184H425.999V38.504H426.767C428.303 38.504 429.375 37.784 429.983 36.344C430.591 34.872 430.943 32.76 431.039 30.008L431.375 20.744H457.055V38.504H460.559ZM440.783 30.824C440.719 32.84 440.575 34.44 440.351 35.624C440.159 36.776 439.759 37.736 439.151 38.504H446.255V29.192H440.831L440.783 30.824ZM463.732 20.744H474.58V47H463.732V20.744ZM469.156 18.632C467.204 18.632 465.62 18.12 464.404 17.096C463.22 16.04 462.628 14.712 462.628 13.112C462.628 11.512 463.22 10.2 464.404 9.176C465.62 8.12 467.204 7.592 469.156 7.592C471.14 7.592 472.724 8.088 473.908 9.08C475.092 10.072 475.684 11.352 475.684 12.92C475.684 14.584 475.092 15.96 473.908 17.048C472.724 18.104 471.14 18.632 469.156 18.632ZM493.205 47.48C490.293 47.48 487.669 46.904 485.333 45.752C483.029 44.568 481.221 42.952 479.909 40.904C478.597 38.824 477.941 36.472 477.941 33.848C477.941 31.224 478.597 28.888 479.909 26.84C481.221 24.76 483.029 23.144 485.333 21.992C487.669 20.84 490.293 20.264 493.205 20.264C496.149 20.264 498.773 20.84 501.077 21.992C503.413 23.144 505.221 24.76 506.501 26.84C507.813 28.888 508.469 31.224 508.469 33.848C508.469 36.472 507.813 38.824 506.501 40.904C505.221 42.952 503.413 44.568 501.077 45.752C498.773 46.904 496.149 47.48 493.205 47.48ZM493.205 39.032C494.453 39.032 495.477 38.584 496.277 37.688C497.077 36.76 497.477 35.48 497.477 33.848C497.477 32.216 497.077 30.952 496.277 30.056C495.477 29.16 494.453 28.712 493.205 28.712C491.957 28.712 490.933 29.16 490.133 30.056C489.333 30.952 488.933 32.216 488.933 33.848C488.933 35.48 489.333 36.76 490.133 37.688C490.933 38.584 491.957 39.032 493.205 39.032ZM51.32 106.48C48.344 106.48 45.672 105.904 43.304 104.752C40.968 103.6 39.128 101.984 37.784 99.904C36.472 97.824 35.816 95.472 35.816 92.848C35.816 90.224 36.472 87.888 37.784 85.84C39.128 83.76 40.968 82.144 43.304 80.992C45.672 79.84 48.344 79.264 51.32 79.264C54.52 79.264 57.256 79.952 59.528 81.328C61.8 82.704 63.368 84.608 64.232 87.04L55.832 91.168C54.808 88.864 53.288 87.712 51.272 87.712C49.992 87.712 48.92 88.16 48.056 89.056C47.224 89.952 46.808 91.216 46.808 92.848C46.808 94.512 47.224 95.792 48.056 96.688C48.92 97.584 49.992 98.032 51.272 98.032C53.288 98.032 54.808 96.88 55.832 94.576L64.232 98.704C63.368 101.136 61.8 103.04 59.528 104.416C57.256 105.792 54.52 106.48 51.32 106.48ZM67.2159 79.744H78.0159V91.6L87.0879 79.744H97.0719V106H86.2719V94.096L77.2479 106H67.2159V79.744ZM115.914 106.48C112.938 106.48 110.266 105.904 107.898 104.752C105.562 103.6 103.722 101.984 102.378 99.904C101.066 97.824 100.41 95.472 100.41 92.848C100.41 90.224 101.066 87.888 102.378 85.84C103.722 83.76 105.562 82.144 107.898 80.992C110.266 79.84 112.938 79.264 115.914 79.264C119.114 79.264 121.85 79.952 124.122 81.328C126.394 82.704 127.962 84.608 128.826 87.04L120.426 91.168C119.402 88.864 117.882 87.712 115.866 87.712C114.586 87.712 113.514 88.16 112.65 89.056C111.818 89.952 111.402 91.216 111.402 92.848C111.402 94.512 111.818 95.792 112.65 96.688C113.514 97.584 114.586 98.032 115.866 98.032C117.882 98.032 119.402 96.88 120.426 94.576L128.826 98.704C127.962 101.136 126.394 103.04 124.122 104.416C121.85 105.792 119.114 106.48 115.914 106.48ZM156.908 88.192H148.892V106H138.092V88.192H130.076V79.744H156.908V88.192ZM186.691 92.848C186.691 93.008 186.643 93.856 186.547 95.392H168.307C168.691 96.384 169.331 97.152 170.227 97.696C171.123 98.208 172.243 98.464 173.587 98.464C174.739 98.464 175.699 98.32 176.467 98.032C177.267 97.744 178.131 97.248 179.059 96.544L184.723 102.256C182.163 105.072 178.339 106.48 173.251 106.48C170.083 106.48 167.299 105.904 164.899 104.752C162.499 103.568 160.643 101.936 159.331 99.856C158.019 97.776 157.363 95.44 157.363 92.848C157.363 90.224 158.003 87.888 159.283 85.84C160.595 83.76 162.371 82.144 164.611 80.992C166.883 79.84 169.427 79.264 172.243 79.264C174.899 79.264 177.315 79.792 179.491 80.848C181.699 81.904 183.443 83.456 184.723 85.504C186.035 87.552 186.691 90 186.691 92.848ZM172.339 86.656C171.219 86.656 170.291 86.96 169.555 87.568C168.819 88.176 168.339 89.04 168.115 90.16H176.563C176.339 89.072 175.859 88.224 175.123 87.616C174.387 86.976 173.459 86.656 172.339 86.656ZM215.887 106L215.839 94.24L210.271 103.936H205.711L200.335 94V106H190.591V79.744H202.063L208.303 91.984L215.359 79.744H225.535L225.631 106H215.887ZM260.333 79.744L249.533 106.528C248.157 109.952 246.445 112.352 244.397 113.728C242.349 115.104 239.837 115.792 236.861 115.792C235.389 115.792 233.901 115.568 232.397 115.12C230.925 114.704 229.757 114.144 228.893 113.44L232.493 106C233.037 106.416 233.645 106.752 234.317 107.008C235.021 107.264 235.693 107.392 236.333 107.392C237.517 107.392 238.413 107.04 239.021 106.336L227.981 79.744H239.117L244.541 93.808L250.061 79.744H260.333ZM261.244 72.4H274.204L272.044 93.136H263.404L261.244 72.4ZM267.724 106.48C265.868 106.48 264.348 105.92 263.164 104.8C261.98 103.68 261.388 102.32 261.388 100.72C261.388 99.088 261.98 97.744 263.164 96.688C264.348 95.6 265.868 95.056 267.724 95.056C269.58 95.056 271.1 95.6 272.284 96.688C273.468 97.744 274.06 99.088 274.06 100.72C274.06 102.32 273.468 103.68 272.284 104.8C271.1 105.92 269.58 106.48 267.724 106.48Z" fill="url(#paint0_linear_10_41)"/>
<path d="M37.262 145.8H51.952V149.154H41.448V152.898H46.492C48.6933 152.898 50.366 153.357 51.51 154.276C52.6713 155.195 53.252 156.521 53.252 158.254C53.252 160.074 52.6107 161.487 51.328 162.492C50.0453 163.497 48.234 164 45.894 164H37.262V145.8ZM45.66 160.88C46.7347 160.88 47.558 160.672 48.13 160.256C48.702 159.823 48.988 159.199 48.988 158.384C48.988 156.789 47.8787 155.992 45.66 155.992H41.448V160.88H45.66ZM69.8546 150.012L63.5366 164.858C62.8953 166.47 62.098 167.605 61.1446 168.264C60.2086 168.923 59.0733 169.252 57.7386 169.252C57.0106 169.252 56.2913 169.139 55.5806 168.914C54.87 168.689 54.2893 168.377 53.8386 167.978L55.3206 165.092C55.6326 165.369 55.988 165.586 56.3866 165.742C56.8026 165.898 57.21 165.976 57.6086 165.976C58.1633 165.976 58.614 165.837 58.9606 165.56C59.3073 165.3 59.6193 164.858 59.8966 164.234L59.9486 164.104L53.8906 150.012H58.0766L62.0026 159.502L65.9546 150.012H69.8546ZM86.4991 160.672V167.016H82.7291V164H72.9011V167.016H69.1311V160.672H69.7031C70.5698 160.655 71.1678 160.143 71.4971 159.138C71.8264 158.133 72.0344 156.703 72.1211 154.848L72.3031 150.012H84.4971V160.672H86.4991ZM75.7871 155.134C75.7351 156.555 75.6224 157.717 75.4491 158.618C75.2931 159.519 74.9898 160.204 74.5391 160.672H80.4411V153.34H75.8651L75.7871 155.134ZM96.6176 154.484C98.4376 154.501 99.8329 154.917 100.804 155.732C101.774 156.529 102.26 157.665 102.26 159.138C102.26 160.681 101.714 161.885 100.622 162.752C99.5469 163.601 98.0302 164.026 96.0716 164.026L89.0516 164V150.012H93.0816V154.484H96.6176ZM95.7076 161.14C96.4876 161.157 97.0856 160.993 97.5016 160.646C97.9176 160.299 98.1256 159.779 98.1256 159.086C98.1256 158.41 97.9176 157.916 97.5016 157.604C97.1029 157.292 96.5049 157.127 95.7076 157.11L93.0816 157.084V161.14H95.7076ZM112.157 150.012H116.187V155.472H122.271V150.012H126.327V164H122.271V158.774H116.187V164H112.157V150.012ZM135.644 149.804C137.81 149.804 139.474 150.324 140.636 151.364C141.797 152.387 142.378 153.938 142.378 156.018V164H138.582V162.258C137.819 163.558 136.398 164.208 134.318 164.208C133.243 164.208 132.307 164.026 131.51 163.662C130.73 163.298 130.132 162.795 129.716 162.154C129.3 161.513 129.092 160.785 129.092 159.97C129.092 158.67 129.577 157.647 130.548 156.902C131.536 156.157 133.052 155.784 135.098 155.784H138.322C138.322 154.9 138.053 154.224 137.516 153.756C136.978 153.271 136.172 153.028 135.098 153.028C134.352 153.028 133.616 153.149 132.888 153.392C132.177 153.617 131.57 153.929 131.068 154.328L129.612 151.494C130.374 150.957 131.284 150.541 132.342 150.246C133.416 149.951 134.517 149.804 135.644 149.804ZM135.332 161.478C136.025 161.478 136.64 161.322 137.178 161.01C137.715 160.681 138.096 160.204 138.322 159.58V158.15H135.54C133.876 158.15 133.044 158.696 133.044 159.788C133.044 160.308 133.243 160.724 133.642 161.036C134.058 161.331 134.621 161.478 135.332 161.478ZM145.901 150.012H149.931V158.332L156.743 150.012H160.461V164H156.431V155.68L149.645 164H145.901V150.012ZM152.921 148.504C149.871 148.504 148.337 147.161 148.319 144.474H150.971C150.989 145.081 151.153 145.557 151.465 145.904C151.795 146.233 152.271 146.398 152.895 146.398C153.519 146.398 153.996 146.233 154.325 145.904C154.672 145.557 154.845 145.081 154.845 144.474H157.549C157.532 147.161 155.989 148.504 152.921 148.504ZM170.522 158.696H168.416V164H164.36V150.012H168.416V155.446H170.6L174.396 150.012H178.712L173.824 156.72L179.05 164H174.266L170.522 158.696ZM189.284 149.804C190.584 149.804 191.762 150.107 192.82 150.714C193.894 151.303 194.735 152.144 195.342 153.236C195.948 154.311 196.252 155.567 196.252 157.006C196.252 158.445 195.948 159.71 195.342 160.802C194.735 161.877 193.894 162.717 192.82 163.324C191.762 163.913 190.584 164.208 189.284 164.208C187.498 164.208 186.094 163.645 185.072 162.518V169.044H181.016V150.012H184.89V151.624C185.895 150.411 187.36 149.804 189.284 149.804ZM188.582 160.88C189.622 160.88 190.471 160.533 191.13 159.84C191.806 159.129 192.144 158.185 192.144 157.006C192.144 155.827 191.806 154.891 191.13 154.198C190.471 153.487 189.622 153.132 188.582 153.132C187.542 153.132 186.684 153.487 186.008 154.198C185.349 154.891 185.02 155.827 185.02 157.006C185.02 158.185 185.349 159.129 186.008 159.84C186.684 160.533 187.542 160.88 188.582 160.88ZM204.3 149.804C206.467 149.804 208.131 150.324 209.292 151.364C210.453 152.387 211.034 153.938 211.034 156.018V164H207.238V162.258C206.475 163.558 205.054 164.208 202.974 164.208C201.899 164.208 200.963 164.026 200.166 163.662C199.386 163.298 198.788 162.795 198.372 162.154C197.956 161.513 197.748 160.785 197.748 159.97C197.748 158.67 198.233 157.647 199.204 156.902C200.192 156.157 201.709 155.784 203.754 155.784H206.978C206.978 154.9 206.709 154.224 206.172 153.756C205.635 153.271 204.829 153.028 203.754 153.028C203.009 153.028 202.272 153.149 201.544 153.392C200.833 153.617 200.227 153.929 199.724 154.328L198.268 151.494C199.031 150.957 199.941 150.541 200.998 150.246C202.073 149.951 203.173 149.804 204.3 149.804ZM203.988 161.478C204.681 161.478 205.297 161.322 205.834 161.01C206.371 160.681 206.753 160.204 206.978 159.58V158.15H204.196C202.532 158.15 201.7 158.696 201.7 159.788C201.7 160.308 201.899 160.724 202.298 161.036C202.714 161.331 203.277 161.478 203.988 161.478ZM235.903 150.012V164H214.557V150.012H218.587V160.672H223.241V150.012H227.271V160.672H231.873V150.012H235.903ZM237.853 160.672V166.782H234.083V164H231.769V160.672H237.853ZM239.796 150.012H243.826V158.332L250.638 150.012H254.356V164H250.326V155.68L243.54 164H239.796V150.012ZM271.905 164V155.628L267.719 162.648H266.003L261.921 155.602V164H258.255V150.012H262.493L266.965 158.098L271.723 150.012H275.519L275.571 164H271.905ZM295.061 149.804C296.361 149.804 297.54 150.107 298.597 150.714C299.672 151.303 300.512 152.144 301.119 153.236C301.726 154.311 302.029 155.567 302.029 157.006C302.029 158.445 301.726 159.71 301.119 160.802C300.512 161.877 299.672 162.717 298.597 163.324C297.54 163.913 296.361 164.208 295.061 164.208C293.276 164.208 291.872 163.645 290.849 162.518V169.044H286.793V150.012H290.667V151.624C291.672 150.411 293.137 149.804 295.061 149.804ZM294.359 160.88C295.399 160.88 296.248 160.533 296.907 159.84C297.583 159.129 297.921 158.185 297.921 157.006C297.921 155.827 297.583 154.891 296.907 154.198C296.248 153.487 295.399 153.132 294.359 153.132C293.319 153.132 292.461 153.487 291.785 154.198C291.126 154.891 290.797 155.827 290.797 157.006C290.797 158.185 291.126 159.129 291.785 159.84C292.461 160.533 293.319 160.88 294.359 160.88ZM310.077 149.804C312.244 149.804 313.908 150.324 315.069 151.364C316.231 152.387 316.811 153.938 316.811 156.018V164H313.015V162.258C312.253 163.558 310.831 164.208 308.751 164.208C307.677 164.208 306.741 164.026 305.943 163.662C305.163 163.298 304.565 162.795 304.149 162.154C303.733 161.513 303.525 160.785 303.525 159.97C303.525 158.67 304.011 157.647 304.981 156.902C305.969 156.157 307.486 155.784 309.531 155.784H312.755C312.755 154.9 312.487 154.224 311.949 153.756C311.412 153.271 310.606 153.028 309.531 153.028C308.786 153.028 308.049 153.149 307.321 153.392C306.611 153.617 306.004 153.929 305.501 154.328L304.045 151.494C304.808 150.957 305.718 150.541 306.775 150.246C307.85 149.951 308.951 149.804 310.077 149.804ZM309.765 161.478C310.459 161.478 311.074 161.322 311.611 161.01C312.149 160.681 312.53 160.204 312.755 159.58V158.15H309.973C308.309 158.15 307.477 158.696 307.477 159.788C307.477 160.308 307.677 160.724 308.075 161.036C308.491 161.331 309.055 161.478 309.765 161.478ZM329.282 156.72C330.114 156.98 330.755 157.379 331.206 157.916C331.674 158.453 331.908 159.095 331.908 159.84C331.908 160.724 331.604 161.504 330.998 162.18C330.391 162.839 329.559 163.35 328.502 163.714C327.444 164.078 326.248 164.26 324.914 164.26C323.822 164.26 322.747 164.147 321.69 163.922C320.632 163.697 319.653 163.359 318.752 162.908L319.844 160.074C321.317 160.785 322.946 161.14 324.732 161.14C325.685 161.14 326.43 161.001 326.968 160.724C327.522 160.429 327.8 160.022 327.8 159.502C327.8 159.051 327.609 158.713 327.228 158.488C326.846 158.245 326.292 158.124 325.564 158.124H322.704V155.602H325.2C325.91 155.602 326.456 155.489 326.838 155.264C327.219 155.039 327.41 154.709 327.41 154.276C327.41 153.825 327.167 153.479 326.682 153.236C326.214 152.993 325.538 152.872 324.654 152.872C323.302 152.872 321.828 153.193 320.234 153.834L319.246 151.026C321.187 150.177 323.076 149.752 324.914 149.752C326.179 149.752 327.306 149.908 328.294 150.22C329.299 150.532 330.088 150.991 330.66 151.598C331.232 152.187 331.518 152.881 331.518 153.678C331.518 154.337 331.318 154.935 330.92 155.472C330.521 155.992 329.975 156.408 329.282 156.72ZM341.41 164.208C339.937 164.208 338.611 163.905 337.432 163.298C336.271 162.674 335.361 161.816 334.702 160.724C334.044 159.632 333.714 158.393 333.714 157.006C333.714 155.619 334.044 154.38 334.702 153.288C335.361 152.196 336.271 151.347 337.432 150.74C338.611 150.116 339.937 149.804 341.41 149.804C342.884 149.804 344.201 150.116 345.362 150.74C346.524 151.347 347.434 152.196 348.092 153.288C348.751 154.38 349.08 155.619 349.08 157.006C349.08 158.393 348.751 159.632 348.092 160.724C347.434 161.816 346.524 162.674 345.362 163.298C344.201 163.905 342.884 164.208 341.41 164.208ZM341.41 160.88C342.45 160.88 343.3 160.533 343.958 159.84C344.634 159.129 344.972 158.185 344.972 157.006C344.972 155.827 344.634 154.891 343.958 154.198C343.3 153.487 342.45 153.132 341.41 153.132C340.37 153.132 339.512 153.487 338.836 154.198C338.16 154.891 337.822 155.827 337.822 157.006C337.822 158.185 338.16 159.129 338.836 159.84C339.512 160.533 340.37 160.88 341.41 160.88ZM365.52 164V155.628L361.334 162.648H359.618L355.536 155.602V164H351.87V150.012H356.108L360.58 158.098L365.338 150.012H369.134L369.186 164H365.52ZM389.508 156.72C390.34 156.98 390.982 157.379 391.432 157.916C391.9 158.453 392.134 159.095 392.134 159.84C392.134 160.724 391.831 161.504 391.224 162.18C390.618 162.839 389.786 163.35 388.728 163.714C387.671 164.078 386.475 164.26 385.14 164.26C384.048 164.26 382.974 164.147 381.916 163.922C380.859 163.697 379.88 163.359 378.978 162.908L380.07 160.074C381.544 160.785 383.173 161.14 384.958 161.14C385.912 161.14 386.657 161.001 387.194 160.724C387.749 160.429 388.026 160.022 388.026 159.502C388.026 159.051 387.836 158.713 387.454 158.488C387.073 158.245 386.518 158.124 385.79 158.124H382.93V155.602H385.426C386.137 155.602 386.683 155.489 387.064 155.264C387.446 155.039 387.636 154.709 387.636 154.276C387.636 153.825 387.394 153.479 386.908 153.236C386.44 152.993 385.764 152.872 384.88 152.872C383.528 152.872 382.055 153.193 380.46 153.834L379.472 151.026C381.414 150.177 383.303 149.752 385.14 149.752C386.406 149.752 387.532 149.908 388.52 150.22C389.526 150.532 390.314 150.991 390.886 151.598C391.458 152.187 391.744 152.881 391.744 153.678C391.744 154.337 391.545 154.935 391.146 155.472C390.748 155.992 390.202 156.408 389.508 156.72ZM402.448 150.012H406.478V155.472H412.562V150.012H416.618V164H412.562V158.774H406.478V164H402.448V150.012ZM425.935 149.804C428.101 149.804 429.765 150.324 430.927 151.364C432.088 152.387 432.669 153.938 432.669 156.018V164H428.873V162.258C428.11 163.558 426.689 164.208 424.609 164.208C423.534 164.208 422.598 164.026 421.801 163.662C421.021 163.298 420.423 162.795 420.007 162.154C419.591 161.513 419.383 160.785 419.383 159.97C419.383 158.67 419.868 157.647 420.839 156.902C421.827 156.157 423.343 155.784 425.389 155.784H428.613C428.613 154.9 428.344 154.224 427.807 153.756C427.269 153.271 426.463 153.028 425.389 153.028C424.643 153.028 423.907 153.149 423.179 153.392C422.468 153.617 421.861 153.929 421.359 154.328L419.903 151.494C420.665 150.957 421.575 150.541 422.633 150.246C423.707 149.951 424.808 149.804 425.935 149.804ZM425.623 161.478C426.316 161.478 426.931 161.322 427.469 161.01C428.006 160.681 428.387 160.204 428.613 159.58V158.15H425.831C424.167 158.15 423.335 158.696 423.335 159.788C423.335 160.308 423.534 160.724 423.933 161.036C424.349 161.331 424.912 161.478 425.623 161.478ZM449.842 164V155.628L445.656 162.648H443.94L439.858 155.602V164H436.192V150.012H440.43L444.902 158.098L449.66 150.012H453.456L453.508 164H449.842ZM457.393 150.012H461.423V158.332L468.235 150.012H471.953V164H467.923V155.68L461.137 164H457.393V150.012Z" fill="url(#paint1_linear_10_41)"/>
<g filter="url(#filter1_d_10_41)">
<path d="M35 226.5C35 210.208 48.2076 197 64.5 197H305.5C321.792 197 335 210.208 335 226.5C335 242.792 321.792 256 305.5 256H64.5C48.2076 256 35 242.792 35 226.5Z" fill="url(#paint2_linear_10_41)"/>
<path d="M123.176 230.738V236.978H120.758V233H105.782L105.756 236.978H103.338L103.364 230.738H104.248C105.392 230.669 106.198 229.767 106.666 228.034C107.134 226.283 107.42 223.822 107.524 220.65L107.706 214.8H120.498V230.738H123.176ZM109.812 220.884C109.725 223.449 109.517 225.573 109.188 227.254C108.876 228.935 108.365 230.097 107.654 230.738H117.924V217.062H109.942L109.812 220.884ZM138.464 226.188C138.464 226.379 138.446 226.63 138.412 226.942H127.232C127.388 228.155 127.916 229.135 128.818 229.88C129.736 230.608 130.872 230.972 132.224 230.972C133.87 230.972 135.196 230.417 136.202 229.308L137.58 230.92C136.956 231.648 136.176 232.203 135.24 232.584C134.321 232.965 133.29 233.156 132.146 233.156C130.69 233.156 129.398 232.861 128.272 232.272C127.145 231.665 126.27 230.825 125.646 229.75C125.039 228.675 124.736 227.462 124.736 226.11C124.736 224.775 125.03 223.571 125.62 222.496C126.226 221.421 127.05 220.589 128.09 220C129.147 219.393 130.334 219.09 131.652 219.09C132.969 219.09 134.139 219.393 135.162 220C136.202 220.589 137.008 221.421 137.58 222.496C138.169 223.571 138.464 224.801 138.464 226.188ZM131.652 221.196C130.456 221.196 129.45 221.56 128.636 222.288C127.838 223.016 127.37 223.969 127.232 225.148H136.072C135.933 223.987 135.456 223.042 134.642 222.314C133.844 221.569 132.848 221.196 131.652 221.196ZM152.022 221.404H146.978V233H144.482V221.404H139.438V219.22H152.022V221.404ZM159.488 219.09C161.395 219.09 162.851 219.558 163.856 220.494C164.879 221.43 165.39 222.825 165.39 224.68V233H163.024V231.18C162.608 231.821 162.01 232.315 161.23 232.662C160.468 232.991 159.558 233.156 158.5 233.156C156.958 233.156 155.718 232.783 154.782 232.038C153.864 231.293 153.404 230.313 153.404 229.1C153.404 227.887 153.846 226.916 154.73 226.188C155.614 225.443 157.018 225.07 158.942 225.07H162.894V224.576C162.894 223.501 162.582 222.678 161.958 222.106C161.334 221.534 160.416 221.248 159.202 221.248C158.388 221.248 157.59 221.387 156.81 221.664C156.03 221.924 155.372 222.279 154.834 222.73L153.794 220.858C154.505 220.286 155.354 219.853 156.342 219.558C157.33 219.246 158.379 219.09 159.488 219.09ZM158.916 231.232C159.87 231.232 160.693 231.024 161.386 230.608C162.08 230.175 162.582 229.568 162.894 228.788V226.864H159.046C156.932 226.864 155.874 227.575 155.874 228.996C155.874 229.689 156.143 230.235 156.68 230.634C157.218 231.033 157.963 231.232 158.916 231.232ZM181.715 219.22V233H179.219V221.404H173.291L173.135 224.472C173.048 226.327 172.883 227.878 172.641 229.126C172.398 230.357 171.999 231.345 171.445 232.09C170.89 232.835 170.119 233.208 169.131 233.208C168.68 233.208 168.169 233.13 167.597 232.974L167.753 230.868C167.978 230.92 168.186 230.946 168.377 230.946C169.07 230.946 169.59 230.643 169.937 230.036C170.283 229.429 170.509 228.71 170.613 227.878C170.717 227.046 170.812 225.859 170.899 224.316L171.133 219.22H181.715ZM192.911 223.9C194.662 223.917 195.996 224.316 196.915 225.096C197.834 225.876 198.293 226.977 198.293 228.398C198.293 229.889 197.79 231.041 196.785 231.856C195.797 232.653 194.376 233.043 192.521 233.026L186.541 233V219.22H189.037V223.874L192.911 223.9ZM192.313 231.128C193.44 231.145 194.289 230.92 194.861 230.452C195.45 229.984 195.745 229.291 195.745 228.372C195.745 227.471 195.459 226.812 194.887 226.396C194.332 225.98 193.474 225.763 192.313 225.746L189.037 225.694V231.102L192.313 231.128ZM201.496 219.22H203.992V225.07H211.844V219.22H214.34V233H211.844V227.228H203.992V233H201.496V219.22ZM219.193 219.22H221.689V233H219.193V219.22ZM220.441 216.568C219.956 216.568 219.549 216.412 219.219 216.1C218.907 215.788 218.751 215.407 218.751 214.956C218.751 214.505 218.907 214.124 219.219 213.812C219.549 213.483 219.956 213.318 220.441 213.318C220.927 213.318 221.325 213.474 221.637 213.786C221.967 214.081 222.131 214.453 222.131 214.904C222.131 215.372 221.967 215.771 221.637 216.1C221.325 216.412 220.927 216.568 220.441 216.568ZM246.187 219.22V233H226.557V219.22H229.053V230.816H235.137V219.22H237.633V230.816H243.691V219.22H246.187ZM263.487 226.188C263.487 226.379 263.47 226.63 263.435 226.942H252.255C252.411 228.155 252.94 229.135 253.841 229.88C254.76 230.608 255.895 230.972 257.247 230.972C258.894 230.972 260.22 230.417 261.225 229.308L262.603 230.92C261.979 231.648 261.199 232.203 260.263 232.584C259.345 232.965 258.313 233.156 257.169 233.156C255.713 233.156 254.422 232.861 253.295 232.272C252.169 231.665 251.293 230.825 250.669 229.75C250.063 228.675 249.759 227.462 249.759 226.11C249.759 224.775 250.054 223.571 250.643 222.496C251.25 221.421 252.073 220.589 253.113 220C254.171 219.393 255.358 219.09 256.675 219.09C257.993 219.09 259.163 219.393 260.185 220C261.225 220.589 262.031 221.421 262.603 222.496C263.193 223.571 263.487 224.801 263.487 226.188ZM256.675 221.196C255.479 221.196 254.474 221.56 253.659 222.288C252.862 223.016 252.394 223.969 252.255 225.148H261.095C260.957 223.987 260.48 223.042 259.665 222.314C258.868 221.569 257.871 221.196 256.675 221.196Z" fill="black"/>
</g>
</g>
<defs>
<filter id="filter0_d_10_41" x="31" y="0" width="488" height="264" filterUnits="userSpaceOnUse" color-interpolation-filters="sRGB">
<feFlood flood-opacity="0" result="BackgroundImageFix"/>
<feColorMatrix in="SourceAlpha" type="matrix" values="0 0 0 0 0 0 0 0 0 0 0 0 0 0 0 0 0 0 127 0" result="hardAlpha"/>
<feOffset dy="4"/>
<feGaussianBlur stdDeviation="2"/>
<feComposite in2="hardAlpha" operator="out"/>
<feColorMatrix type="matrix" values="0 0 0 0 0 0 0 0 0 0 0 0 0 0 0 0 0 0 0.25 0"/>
<feBlend mode="normal" in2="BackgroundImageFix" result="effect1_dropShadow_10_41"/>
<feBlend mode="normal" in="SourceGraphic" in2="effect1_dropShadow_10_41" result="shape"/>
</filter>
<filter id="filter1_d_10_41" x="0" y="166" width="370" height="129" filterUnits="userSpaceOnUse" color-interpolation-filters="sRGB">
<feFlood flood-opacity="0" result="BackgroundImageFix"/>
<feColorMatrix in="SourceAlpha" type="matrix" values="0 0 0 0 0 0 0 0 0 0 0 0 0 0 0 0 0 0 127 0" result="hardAlpha"/>
<feOffset dy="4"/>
<feGaussianBlur stdDeviation="17.5"/>
<feComposite in2="hardAlpha" operator="out"/>
<feColorMatrix type="matrix" values="0 0 0 0 0.984314 0 0 0 0 0.6 0 0 0 0 0.0666667 0 0 0 0.51 0"/>
<feBlend mode="normal" in2="BackgroundImageFix" result="effect1_dropShadow_10_41"/>
<feBlend mode="normal" in="SourceGraphic" in2="effect1_dropShadow_10_41" result="shape"/>
</filter>
<linearGradient id="paint0_linear_10_41" x1="227.5" y1="26" x2="341.5" y2="111" gradientUnits="userSpaceOnUse">
<stop stop-color="#FC8800"/>
<stop offset="0.0001" stop-color="#FC8800"/>
<stop offset="0.9998" stop-color="#FEAD3F"/>
<stop offset="0.9999" stop-color="#FFBB59"/>
<stop offset="1" stop-color="#FFA318"/>
</linearGradient>
<linearGradient id="paint1_linear_10_41" x1="130" y1="139" x2="384.5" y2="164" gradientUnits="userSpaceOnUse">
<stop stop-color="#FC8800"/>
<stop offset="1" stop-color="#FFA318"/>
</linearGradient>
<linearGradient id="paint2_linear_10_41" x1="52.5" y1="200.5" x2="313" y2="256" gradientUnits="userSpaceOnUse">
<stop stop-color="#FC8800"/>
<stop offset="1" stop-color="#FA9F17"/>
</linearGradient>
</defs>
</svg>
