<svg viewBox="0 0 100 100" xmlns="http://www.w3.org/2000/svg" xmlns:xlink="http://www.w3.org/1999/xlink" width="100" height="100">
<defs>



<g id="bg" fill="#ff9311" class="bg"><path d="M0,50a50,50 0 1,0 100,0a50,50 0 1,0 -100,0"/></g><g id="fg"><path opacity="0.1" d="M85.355,14.645l-70.711,70.71c19.526,19.526,51.185,19.526,70.711,0 C104.882,65.83,104.882,34.171,85.355,14.645z"/><path opacity="0.1" d="M50,0v100c27.614,0,50-22.386,50-50S77.614,0,50,0z"/></g> 
 <path fill="#002a4a" id="i-2187" d="M24,21c-1.65,0-3,1.35-3,3s1.35,3,3,3s3-1.35,3-3S25.65,21,24,21z M24,25c-0.55,0-1-0.45-1-1s0.45-1,1-1s1,0.45,1,1 S24.55,25,24,25z M24,0C10.77,0,0,10.77,0,24s10.77,24,24,24s24-10.77,24-24S37.23,0,24,0z M24,45C12.42,45,3,35.58,3,24h2 c0,10.48,8.52,19,19,19V45z M24,41.67c-9.74,0-17.67-7.93-17.67-17.67h2c0,8.64,7.03,15.67,15.67,15.67V41.67z M24,38.33 C16.1,38.33,9.67,31.9,9.67,24h2c0,6.8,5.53,12.33,12.33,12.33V38.33z M24,33c-4.96,0-9-4.04-9-9s4.04-9,9-9s9,4.04,9,9 S28.96,33,24,33z M36.33,24c0-6.8-5.53-12.33-12.33-12.33v-2c7.9,0,14.33,6.43,14.33,14.33H36.33z M39.67,24 c0-8.64-7.03-15.67-15.67-15.67v-2c9.74,0,17.67,7.93,17.67,17.67H39.67z M24,5V3c11.58,0,21,9.42,21,21h-2C43,13.52,34.48,5,24,5z" /> 
</defs>
<use x="0" y="0" class="bg" xlink:href="#bg"/>
<use x="26" y="26" xlink:href="#i-2187"/>
<use x="0" y="0" xlink:href="#fg"/>
</svg>