<svg width="20" height="20" viewBox="0 0 20 20" fill="none" xmlns="http://www.w3.org/2000/svg">
<path d="M9.72539 19.4732C4.31914 19.4967 -0.126172 14.9967 0.00273473 9.50059C0.123828 4.26621 4.45977 -0.0580052 9.85039 0.000588545C15.1902 0.0591823 19.6082 4.50449 19.4637 10.0084C19.327 15.2193 15.0262 19.5006 9.72539 19.4732ZM1.18633 9.75059C1.2293 14.6451 5.19805 18.4146 9.88555 18.3326C14.4246 18.2506 18.2723 14.5514 18.2723 9.73887C18.2723 4.84434 14.2723 1.05918 9.56914 1.14903C5.03008 1.23106 1.21758 4.94199 1.18633 9.75059Z" fill="white"/>
<path d="M7.50391 16.7852C7.50391 14.4844 7.50391 12.2031 7.50391 9.89844C6.99609 9.89844 6.50391 9.89844 6 9.89844C6 9.11719 6 8.35938 6 7.57812C6.06641 7.57422 6.13281 7.56641 6.20312 7.56641C6.56641 7.56641 6.93359 7.55859 7.29687 7.57031C7.45703 7.57422 7.51172 7.53125 7.50781 7.36719C7.5 6.77344 7.5 6.18359 7.50391 5.58984C7.50781 4.92188 7.69531 4.31641 8.17187 3.83203C8.63281 3.36328 9.22266 3.10938 9.86328 3.07031C10.8945 3.01172 11.9297 3.01953 12.9648 3C12.9766 3 12.9883 3.01172 13.0117 3.02344C13.0117 3.80859 13.0117 4.59766 13.0117 5.40625C12.9375 5.41016 12.8672 5.41406 12.8008 5.41406C12.332 5.41406 11.8633 5.41406 11.3945 5.41406C10.9219 5.41797 10.6445 5.69922 10.6445 6.16406C10.6445 6.60547 10.6445 7.05078 10.6484 7.49219C10.6484 7.50391 10.6562 7.51562 10.668 7.55859C11.4414 7.55859 12.2227 7.55859 13.043 7.55859C12.9414 8.35156 12.8477 9.10938 12.7461 9.89453C12.0391 9.89453 11.3477 9.89453 10.6367 9.89453C10.6367 12.207 10.6367 14.4961 10.6367 16.793C9.58594 16.7852 8.5625 16.7852 7.50391 16.7852Z" fill="white"/>
</svg>
