<svg width="32" height="32" viewBox="0 0 32 32" fill="none" xmlns="http://www.w3.org/2000/svg">
<circle cx="16" cy="16" r="16" fill="white"/>
<path d="M22.9932 15.9977C22.9932 16.9791 22.9734 17.9633 22.9988 18.9447C23.0411 20.6819 21.9491 22.0243 20.558 22.6222C19.9993 22.8619 19.4123 22.9888 18.8057 22.9888C16.9066 22.9916 15.0047 23.017 13.1057 22.9804C11.675 22.9522 10.4984 22.3543 9.65465 21.1755C9.21163 20.555 9 19.85 9 19.0857C9 17.0637 9 15.0445 9 13.0224C9 11.3726 9.8042 10.2192 11.232 9.46901C11.8528 9.14469 12.5272 9.0065 13.2298 9.00368C15.0725 9.00368 16.9179 8.9924 18.7605 9.00932C20.1911 9.0206 21.3848 9.56771 22.2651 10.7183C22.7561 11.3613 22.9932 12.1002 22.9932 12.9124C22.9932 13.939 22.9932 14.9683 22.9932 15.9977ZM10.0412 15.9977C10.0412 17.0327 10.0412 18.0648 10.0412 19.0998C10.0412 19.5623 10.1485 19.9966 10.3883 20.3886C11.0176 21.418 11.9685 21.92 13.148 21.9397C15.0414 21.9679 16.9376 21.951 18.8339 21.9454C19.2995 21.9454 19.751 21.8495 20.1714 21.6493C21.317 21.1021 21.9576 20.2307 21.9519 18.9222C21.9406 16.9199 21.9491 14.9175 21.9491 12.9152C21.9491 12.3484 21.7883 11.8295 21.4525 11.3726C20.8035 10.4955 19.9061 10.0641 18.8339 10.0528C16.9433 10.0302 15.0527 10.0443 13.1621 10.0471C12.7586 10.0471 12.3692 10.1289 11.9911 10.2699C10.9527 10.6563 9.98762 11.6349 10.0328 13.076C10.0666 14.0518 10.0412 15.0247 10.0412 15.9977Z" fill="black"/>
<path d="M16.0121 18.9872C14.1921 18.9872 12.7247 17.5375 12.7219 15.7324C12.7191 13.9556 14.1977 12.5002 16.0065 12.5002C17.8209 12.4974 19.2938 13.9499 19.2967 15.7409C19.2967 17.5291 17.8265 18.9844 16.0121 18.9872ZM16.0121 17.9437C17.2509 17.9437 18.2554 16.9537 18.2526 15.7353C18.2498 14.5281 17.2452 13.541 16.0121 13.541C14.7734 13.541 13.7632 14.5253 13.7632 15.7409C13.766 16.9593 14.7734 17.9465 16.0121 17.9437Z" fill="black"/>
<path d="M19.6776 11.5132C20.0585 11.5132 20.3689 11.8375 20.3689 12.2352C20.3661 12.6329 20.0529 12.9544 19.6719 12.9516C19.2966 12.9488 18.9891 12.6273 18.9891 12.238C18.9862 11.8404 19.2966 11.5132 19.6776 11.5132Z" fill="black"/>
</svg>
