<svg width="32" height="32" viewBox="0 0 32 32" fill="none" xmlns="http://www.w3.org/2000/svg">
<circle cx="16" cy="16" r="16" fill="white"/>
<path d="M13.4947 22.9921C13.4947 20.6568 13.4947 18.3413 13.4947 16.002C12.99 16.002 12.5008 16.002 12 16.002C12 15.209 12 14.4398 12 13.6468C12.066 13.6429 12.132 13.6349 12.2019 13.6349C12.563 13.6349 12.9279 13.627 13.289 13.6389C13.4481 13.6429 13.5025 13.5993 13.4986 13.4327C13.4908 12.8301 13.4908 12.2314 13.4947 11.6287C13.4986 10.9507 13.685 10.3362 14.1586 9.84452C14.6167 9.36873 15.203 9.11102 15.8397 9.07137C16.8647 9.01189 17.8935 9.01982 18.9224 9C18.934 9 18.9456 9.01189 18.9689 9.02379C18.9689 9.82073 18.9689 10.6216 18.9689 11.4424C18.8952 11.4463 18.8253 11.4503 18.7593 11.4503C18.2934 11.4503 17.8275 11.4503 17.3616 11.4503C16.8918 11.4543 16.6162 11.7397 16.6162 12.2116C16.6162 12.6596 16.6162 13.1116 16.6201 13.5596C16.6201 13.5715 16.6278 13.5834 16.6395 13.627C17.4082 13.627 18.1847 13.627 19 13.627C18.8991 14.4319 18.8059 15.2011 18.7049 15.998C18.0022 15.998 17.315 15.998 16.6084 15.998C16.6084 18.3452 16.6084 20.6686 16.6084 23C15.5641 22.9921 14.5469 22.9921 13.4947 22.9921Z" fill="black"/>
</svg>
