<svg width="32" height="32" viewBox="0 0 32 32" fill="none" xmlns="http://www.w3.org/2000/svg">
<circle cx="16" cy="16" r="16" fill="white"/>
<path d="M22.6158 9.29272C22.2763 8.96993 21.7694 8.91004 21.2611 9.13327C20.946 9.27094 16.0092 11.5787 11.4071 13.7309L9.88709 14.4418C9.29826 14.707 9 15.1372 9 15.7182C9 16.125 9.15543 16.678 9.89479 17.0031L12.4622 18.1442C12.6842 18.8838 13.1995 20.6012 13.329 21.0578C13.4061 21.3285 13.6007 22.0106 14.0922 22.1701C14.193 22.2082 14.298 22.2276 14.4052 22.2276C14.7153 22.2276 14.9387 22.0674 15.0479 21.9741L16.6786 20.4418L18.6607 22.4773C18.737 22.5636 19.1403 23 19.6829 23C20.36 23 20.8739 22.3739 20.981 21.768C21.0391 21.4358 22.9498 10.7783 22.9498 10.7799C23.1214 9.92508 22.814 9.48173 22.6158 9.29272ZM19.6164 21.3402L16.7199 18.3643L14.5984 20.3593C14.3471 19.4983 13.6875 17.3088 13.6875 17.3088L13.5853 16.9673L10.77 15.7166L11.9511 15.1652C14.9611 13.7573 20.3221 11.2505 21.5376 10.6889C21.2737 12.1589 19.8348 20.1836 19.6164 21.3402Z" fill="black"/>
<path d="M19.3601 12.8882C19.2726 12.8882 19.1543 12.9807 19.0913 13.0243C18.1895 13.6489 13.6679 16.5074 12.4279 17.2899C12.7773 17.4455 13.0237 17.5552 13.0237 17.5552C13.0237 17.5552 13.8296 20.2348 13.997 20.8221C14.1643 21.4101 14.2987 21.4241 14.2987 21.4241C14.3358 21.442 14.3722 21.449 14.4058 21.449C14.4332 21.449 14.4521 21.4381 14.4752 21.4311L15.2992 17.8469C15.2992 17.8469 19.0541 13.6248 19.2803 13.379C19.4623 13.1822 19.5001 13.113 19.5001 13.0445C19.5001 12.9535 19.4574 12.8882 19.3601 12.8882Z" fill="black"/>
</svg>
