<svg width="20" height="20" viewBox="0 0 20 20" fill="none" xmlns="http://www.w3.org/2000/svg">
<path d="M17.875 2.81411C17.4708 2.46828 16.8675 2.40411 16.2625 2.64327C15.8875 2.79077 10.0117 5.26327 4.53417 7.56911L2.725 8.33077C2.02417 8.61494 1.66917 9.07577 1.66917 9.69827C1.66917 10.1341 1.85417 10.7266 2.73417 11.0749L5.79 12.2974C6.05417 13.0899 6.6675 14.9299 6.82166 15.4191C6.91333 15.7091 7.145 16.4399 7.73 16.6108C7.85 16.6516 7.975 16.6724 8.1025 16.6724C8.47166 16.6724 8.7375 16.5008 8.8675 16.4008L10.8083 14.7591L13.1675 16.9399C13.2583 17.0324 13.7383 17.4999 14.3842 17.4999C15.19 17.4999 15.8017 16.8291 15.9292 16.1799C15.9983 15.8241 18.2725 4.40577 18.2725 4.40744C18.4767 3.49161 18.1108 3.01661 17.875 2.81411ZM14.305 15.7216L10.8575 12.5333L8.3325 14.6708C8.03333 13.7483 7.24833 11.4024 7.24833 11.4024L7.12667 11.0366L3.77583 9.69661L5.18167 9.10577C8.76416 7.59744 15.145 4.91161 16.5917 4.30994C16.2775 5.88494 14.565 14.4824 14.305 15.7216Z" fill="white"/>
<path d="M14 6.66675C13.8958 6.66675 13.755 6.76591 13.68 6.81258C12.6067 7.48175 7.225 10.5442 5.74917 11.3826C6.165 11.5492 6.45833 11.6667 6.45833 11.6667C6.45833 11.6667 7.4175 14.5376 7.61667 15.1667C7.81583 15.7967 7.97583 15.8117 7.97583 15.8117C8.02 15.8309 8.06333 15.8384 8.10333 15.8384C8.13583 15.8384 8.15833 15.8267 8.18583 15.8192L9.16667 11.9792C9.16667 11.9792 13.6358 7.45591 13.905 7.19258C14.1217 6.98175 14.1667 6.90758 14.1667 6.83425C14.1667 6.73675 14.1158 6.66675 14 6.66675Z" fill="white"/>
</svg>
